# AST/ASF file generated using VICON BodyLanguage
# -----------------------------------------------
:version 1.10
:name VICON
:units
  mass 1.0
  length 0.45
  angle deg
:documentation
   .ast/.asf automatically generated from VICON data using
   VICON BodyBuilder and BodyLanguage model FoxedUp or BRILLIANT.MOD
:root
   order TX TY TZ RX RY RZ
   axis XYZ
   position 0 0 0  
   orientation 0 0 0 
:bonedata
  begin
     id 1 
     name lhipjoint
     direction 0.576517 -0.752066 0.319413 
     length 2.45433 
     axis 0 0 0  XYZ
  end
  begin
     id 2 
     name lfemur
     direction 0.34202 -0.939693 0  
     length 7.54459  
     axis 0 0 20  XYZ
    dof rx ry rz
    limits (-160.0 20.0)
           (-70.0 70.0)
           (-60.0 70.0)
  end
  begin
     id 3 
     name ltibia
     direction 0.34202 -0.939693 0   
     length 7.73986   
     axis 0 0 20   XYZ
    dof rx
    limits (-10.0 170.0)
  end
  begin
     id 4 
     name lfoot
     direction 0.090693 -0.249177 0.964202   
     length 2.28437   
     axis -90 7.62852e-016 20   XYZ
    dof rx rz
    limits (-45.0 90.0)
           (-70.0 20.0)
  end
  begin
     id 5 
     name ltoes
     direction 1.5356e-011 -4.21928e-011 1   
     length 1.14243   
     axis -90 7.62852e-016 20   XYZ
    dof rx
    limits (-90.0 20.0)
  end
  begin
     id 6 
     name rhipjoint
     direction -0.573937 -0.753736 0.320122   
     length 2.44889  
     axis 0 0 0  XYZ 
  end
  begin
     id 7 
     name rfemur
     direction -0.34202 -0.939693 0   
     length 7.50166   
     axis 0 0 -20   XYZ
    dof rx ry rz
    limits (-160.0 20.0)
           (-70.0 70.0)
           (-70.0 60.0)
  end
  begin
     id 8 
     name rtibia
     direction -0.34202 -0.939693 0   
     length 7.54266   
     axis 0 0 -20   XYZ
    dof rx
    limits (-10.0 170.0)
 end
 begin
     id 9 
     name rfoot
     direction -0.114017 -0.31326 0.942798   
     length 2.34212  
     axis -90 -7.62852e-016 -20   XYZ
    dof rx rz
    limits (-45.0 90.0)
           (-20.0 70.0)
  end
  begin
     id 10 
     name rtoes
     direction -1.53557e-011 -4.21867e-011 1   
     length 1.16246   
     axis -90 -7.62852e-016 -20   XYZ
    dof rx
    limits (-90.0 20.0)
  end
  begin
     id 11 
     name lowerback
     direction -0.0228371 0.999155 -0.034167   
     length 2.0537   
     axis 0 0 0   XYZ
    dof rx ry rz
    limits (-20.0 45.0)
           (-30.0 30.0)
           (-30.0 30.0)
  end
  begin
     id 12 
     name upperback
     direction 0.0198981 0.999794 0.00389455   
     length 2.05302   
     axis 0 0 0   XYZ
    dof rx ry rz
    limits (-20.0 45.0)
           (-30.0 30.0)
           (-30.0 30.0)
  end
  begin
     id 13 
     name thorax
     direction 0.0304566 0.99935 0.0192987   
     length 2.05315   
     axis 0 0 0   XYZ
    dof rx ry rz
    limits (-20.0 45.0)
           (-30.0 30.0)
           (-30.0 30.0)
  end
  begin
     id 14 
     name lowerneck
     direction -0.0196762 0.99417 0.106017   
     length 1.82056   
     axis 0 0 0   XYZ
    dof rx ry rz
    limits (-20.0 45.0)
           (-30.0 30.0)
           (-30.0 30.0)
  end
  begin
     id 15 
     name upperneck
     direction 0.00517787 0.9802 -0.197944   
     length 1.83835   
     axis 0 0 0   XYZ
    dof rx ry rz
    limits (-20.0 45.0)
           (-30.0 30.0)
           (-30.0 30.0)
  end
  begin
     id 16
     name head
     direction 0.00211419 0.996945 -0.078081  
     length 1.85629  
     axis 0 0 0   XYZ
    dof rx ry rz
    limits (-20.0 45.0)
           (-30.0 30.0)
           (-30.0 30.0)
  end
  begin
     id 17 
     name lclavicle
     direction 0.930001 0.365811 -0.0357824  
     length 3.81961  
     axis 0 0 0   XYZ
    dof ry rz
    limits (-20.0 10.0)
           (0.0 20.0)
  end
  begin
     id 18 
     name lhumerus
     direction 1 -4.48968e-011 -3.06644e-027   
     length 5.14507   
     axis 180 -30 -90   XYZ
    dof rx ry rz
    limits (-60.0 90.0)
           (-90.0 90.0)
           (-90.0 90.0)
  end
  begin
     id 19
     name lradius
     direction 1 -4.48965e-011 9.06925e-028   
     length 3.50646   
     axis 180 -30 -90   XYZ
    dof rx
    limits (-10.0 170.0)
  end
  begin
     id 20
     name lwrist
     direction 1 -4.48957e-011 1.03922e-027   
     length 1.75323   
     axis -2.56395e-016 90 90   XYZ
    dof ry
    limits (-180.0 0.0)
 end
  begin
     id 21 
     name lhand
     direction 1 -4.48967e-011 2.08017e-027   
     length 0.629969   
     axis -1.32723e-015 90 90   XYZ
    dof rx rz
    limits (-90.0 90.0)
           (-45.0 45.0)
  end
  begin
     id 22 
     name lfingers
     direction 1 -4.49089e-011 4.20095e-027   
     length 0.507897   
     axis -2.6545e-015 90 90   XYZ
    dof rx
    limits (0.0 90.0)
  end
  begin
     id 23
     name lthumb
     direction 0.707107 -6.35001e-011 0.707107   
     length 0.729241   
     axis -90 45 5.05613e-014   XYZ
    dof rx rz
    limits (-45.0 45.0)
           (-45.0 45.0)
  end
  begin
     id 24 
     name rclavicle
     direction -0.881882 0.464123 -0.0829113   
     length 3.47515  
     axis 0 0 0   XYZ 
    dof ry rz
    limits (-10.0 20.0)
           (-20.0 0.0)
  end
  begin
     id 25 
     name rhumerus
     direction -1 -4.48961e-011 -1.55672e-027  
     length 5.232   
     axis 180 30 90   XYZ
    dof rx ry rz
    limits (-90.0 60.0)
           (-90.0 90.0)
           (-90.0 90.0)
  end
  begin
     id 26 
     name rradius
     direction -1 -4.48963e-011 6.18178e-029   
     length 3.65641   
     axis 180 30 90   XYZ
    dof rx
    limits (-10.0 170.0)
  end
  begin
     id 27 
     name rwrist
     direction -1 -4.48982e-011 1.04136e-027   
     length 1.8282   
     axis -2.56395e-016 -90 -90   XYZ
    dof ry
    limits (-180.0 0.0)
  end
  begin
     id 28
     name rhand
     direction -1 -4.48929e-011 2.07378e-027   
     length 0.656807   
     axis -1.32723e-015 -90 -90   XYZ
    dof rx rz
    limits (-90.0 90.0)
           (-45.0 45.0)
  end
  begin
     id 29
     name rfingers
     direction -1 -4.489e-011 4.13816e-027   
     length 0.529535   
     axis -2.6545e-015 -90 -90   XYZ
    dof rx
    limits (0.0 90.0)
  end
  begin
     id 30
     name rthumb
     direction -0.707107 -6.34843e-011 0.707107   
     length 0.760309   
     axis -90 -45 -5.05613e-014   XYZ
    dof rx rz
    limits (-45.0 45.0)
           (-45.0 45.0)
  end
:hierarchy
  begin
    root lhipjoint rhipjoint lowerback
    lhipjoint lfemur
    lfemur ltibia
    ltibia lfoot
    lfoot ltoes
    rhipjoint rfemur
    rfemur rtibia
    rtibia rfoot
    rfoot rtoes
    lowerback upperback
    upperback thorax
    thorax lowerneck lclavicle rclavicle
    lowerneck upperneck
    upperneck head
    lclavicle lhumerus
    lhumerus lradius
    lradius lwrist
    lwrist lhand lthumb
    lhand lfingers
    rclavicle rhumerus
    rhumerus rradius
    rradius rwrist
    rwrist rhand rthumb
    rhand rfingers
  end

#!OML:ASF H:\ManfredETheater\Project 1\Capture day 1\Session 1\subject.ASF
:FULLY-SPECIFIED
:DEGREES
1
root 6.0528 15.4376 43.8552 -151.863 -11.3962 179.123
lowerback 19.4 1.45826 0.831992
upperback 0.143238 1.89817 -0.643437
thorax -10.706 0.767645 -1.70442
lowerneck -17.8206 -5.04193 -5.42756
upperneck -7.74331 -6.9132 4.6323
head 0.870472 -3.79884 1.98985
rclavicle 2.78299e-014 3.97569e-016
rhumerus -36.2386 16.5187 -89.2704
rradius 84.8248
rwrist 2.21323
rhand -22.0122 -10.1788
rfingers 7.12502
rthumb 4.39697 -40.1131
lclavicle 2.78299e-014 3.97569e-016
lhumerus -54.3868 -14.873 87.4962
lradius 87.2604
lwrist 6.08736
lhand -22.9778 -7.83828
lfingers 7.12502
lthumb 3.46451 22.1133
rfemur -9.23675 -6.33682 23.5719
rtibia 46.415
rfoot 12.8508 -6.9732
rtoes -18.7334
lfemur -71.1691 2.16558 -20.0532
ltibia 65.5357
lfoot -22.2928 -5.14011
ltoes 3.80388
2
root 6.01653 15.4423 43.5617 -151.993 -11.8286 178.381
lowerback 20.0607 1.25027 0.310552
upperback 0.299692 1.47874 -0.680563
thorax -10.9284 0.584916 -1.34305
lowerneck -17.8952 -4.99253 -5.35103
upperneck -7.95633 -6.89124 4.58527
head 0.803888 -3.80587 1.96382
rclavicle -2.06736e-014 2.3059e-014
rhumerus -36.6778 15.7958 -89.1973
rradius 83.9528
rwrist 1.02675
rhand -21.2672 -11.244
rfingers 7.12502
rthumb 5.11634 -41.1622
lclavicle -2.06736e-014 2.3059e-014
lhumerus -52.8602 -14.8343 87.5744
lradius 86.2721
lwrist 6.60083
lhand -23.555 -7.8044
lfingers 7.12502
lthumb 2.90708 22.1555
rfemur -11.7229 -6.92726 23.0254
rtibia 51.6537
rfoot 8.71894 -8.98139
rtoes -27.8621
lfemur -69.8098 1.8553 -20.7547
ltibia 65.7945
lfoot -23.2193 -5.6304
ltoes 4.58132
3
root 5.98227 15.4423 43.2751 -151.907 -11.9713 177.525
lowerback 20.5903 1.12791 -0.504152
upperback 0.377122 1.09768 -0.754383
thorax -11.1625 0.438817 -0.857611
lowerneck -17.9892 -4.91189 -5.31185
upperneck -8.11491 -6.81605 4.55819
head 0.759007 -3.78264 1.95368
rclavicle -5.96354e-016 -1.98785e-014
rhumerus -37.4776 14.7975 -89.343
rradius 83.1541
rwrist 0.513882
rhand -23.0584 -10.9581
rfingers 7.12502
rthumb 3.38668 -40.911
lclavicle -5.96354e-016 -1.98785e-014
lhumerus -51.2662 -14.7345 87.6925
lradius 85.2713
lwrist 7.04268
lhand -23.9978 -7.98846
lfingers 7.12502
lthumb 2.47944 21.9769
rfemur -14.5788 -7.36765 22.2065
rtibia 56.7278
rfoot 3.96142 -9.17313
rtoes -28.8467
lfemur -68.5762 1.57981 -21.5894
ltibia 65.8727
lfoot -24.0782 -5.68205
ltoes 5.07229
4
root 5.94684 15.4511 42.9781 -152.063 -12.3347 176.463
lowerback 21.2399 0.904222 -1.2544
upperback 0.629911 0.565977 -0.862768
thorax -11.253 0.211813 -0.393581
lowerneck -18.0944 -4.82648 -5.20602
upperneck -8.37725 -6.76059 4.53195
head 0.679229 -3.77795 1.93196
rclavicle 3.89618e-014 7.95139e-016
rhumerus -38.1346 13.6977 -89.4965
rradius 82.1216
rwrist 0.449002
rhand -23.4182 -10.9914
rfingers 7.12502
rthumb 3.03923 -40.9495
lclavicle 3.89618e-014 7.95139e-016
lhumerus -49.4191 -14.7069 87.7724
lradius 84.2207
lwrist 7.3546
lhand -24.5352 -8.39762
lfingers 7.12502
lthumb 1.96052 21.5731
rfemur -17.0543 -8.14837 21.2516
rtibia 61.408
rfoot 1.72469 -10.2924
rtoes -29.782
lfemur -66.8934 1.02856 -22.4786
ltibia 65.8978
lfoot -24.9881 -5.73783
ltoes 5.62229
5
root 5.90136 15.4744 42.6838 -151.882 -12.3359 175.751
lowerback 21.5374 0.740127 -1.73864
upperback 0.681538 0.198213 -0.967847
thorax -11.362 0.0572358 -0.122173
lowerneck -18.1822 -4.67881 -5.01527
upperneck -8.56002 -6.63136 4.44386
head 0.614309 -3.73512 1.87945
rclavicle 2.78299e-015 -2.38542e-014
rhumerus -39.0593 12.1267 -89.7052
rradius 80.702
rwrist 0.916924
rhand -23.5272 -11.1673
rfingers 7.12502
rthumb 2.93401 -41.1269
lclavicle 2.78299e-015 -2.38542e-014
lhumerus -47.641 -14.7493 88.0284
lradius 83.4947
lwrist 7.19169
lhand -24.9804 -8.96098
lfingers 7.12502
lthumb 1.5305 21.0133
rfemur -20.6902 -8.52875 20.4648
rtibia 65.9275
rfoot 0.20979 -11.4285
rtoes -26.924
lfemur -65.579 0.710392 -23.1409
ltibia 65.8429
lfoot -26.0621 -5.5216
ltoes 4.90148
6
root 5.85978 15.4707 42.394 -151.828 -12.5288 175.011
lowerback 21.9621 0.547059 -2.22441
upperback 0.793883 -0.217071 -1.03338
thorax -11.4665 -0.120756 0.212214
lowerneck -18.2584 -4.54621 -4.85876
upperneck -8.78777 -6.52124 4.37239
head 0.53566 -3.70353 1.8381
rclavicle -4.77083e-015 1.70955e-014
rhumerus -39.8625 10.765 -89.7444
rradius 79.4863
rwrist 1.08326
rhand -23.9788 -11.2585
rfingers 7.12502
rthumb 2.49784 -41.2236
lclavicle -4.77083e-015 1.70955e-014
lhumerus -45.8891 -14.7791 88.2105
lradius 82.7165
lwrist 7.26489
lhand -25.4117 -9.36314
lfingers 7.12502
lthumb 1.11397 20.6137
rfemur -23.7419 -9.127 19.7262
rtibia 70.1728
rfoot -2.08307 -12.4201
rtoes -26.4644
lfemur -64.2269 0.333792 -23.7591
ltibia 65.8534
lfoot -27.0024 -5.43907
ltoes 4.79113
7
root 5.81693 15.4627 42.1041 -151.757 -12.7191 174.353
lowerback 22.3249 0.337696 -2.61798
upperback 0.893056 -0.627552 -1.07789
thorax -11.5451 -0.299385 0.519282
lowerneck -18.3144 -4.38745 -4.67571
upperneck -9.03448 -6.38447 4.29605
head 0.445565 -3.66069 1.79312
rclavicle -5.76476e-015 1.39149e-015
rhumerus -40.7182 9.3272 -89.7299
rradius 78.1803
rwrist 1.36014
rhand -24.4633 -11.3219
rfingers 7.12502
rthumb 2.02987 -41.292
lclavicle -5.76476e-015 1.39149e-015
lhumerus -44.121 -14.834 88.4121
lradius 82.0382
lwrist 7.26144
lhand -25.8056 -9.79417
lfingers 7.12502
lthumb 0.733476 20.1843
rfemur -26.948 -9.73117 19.069
rtibia 74.1772
rfoot -4.13317 -13.3395
rtoes -25.3464
lfemur -62.9116 -0.0414347 -24.2731
ltibia 65.8918
lfoot -27.9724 -5.29082
ltoes 4.58636
